# xmcd CD database file
#
# Track frame offsets:
#	150
#	18654
#	33634
#	46539
#	62697
#	73992
#	91065
#	104137
#	125237
#	138032
#	154049
#	170208
#
# Disc length: 2605 seconds
#
# Revision: 0
# Processed by: cddbd v1.5.2PL0 Copyright (c) Steve Scherf et al.
# Submitted via: CDex 1.51
#
DISCID=ab0a2b0c
DTITLE=Danny Morris and The California Stars - Danny Morris and The California Stars
DYEAR=2015
DGENRE=Country
TTITLE0=Leavin'
TTITLE1=One Night In Knoxville
TTITLE2=The Honky Tonk That Used to Be Here
TTITLE3=Just Between Us
TTITLE4=Holes In the Floor
TTITLE5=Life of the Party
TTITLE6=Just One Night
TTITLE7=Somebody Said
TTITLE8=Dolly Was a Trucker
TTITLE9=Closing Time
TTITLE10=Song About Jesus
TTITLE11=Danny Morris and The California Stars - More Than I Can Bear
EXTD=YEAR: 2015
EXTT0=
EXTT1=
EXTT2=
EXTT3=
EXTT4=
EXTT5=
EXTT6=
EXTT7=
EXTT8=
EXTT9=
EXTT10=
EXTT11=
PLAYORDER=
